<?xml version="1.0" encoding="utf-8"?>
<!-- Generator: Adobe Illustrator 19.0.0, SVG Export Plug-In . SVG Version: 6.00 Build 0)  -->
<svg version="1.1" id="Layer_1" xmlns="http://www.w3.org/2000/svg" xmlns:xlink="http://www.w3.org/1999/xlink" x="0px" y="0px"
	 viewBox="-262.5 264.6 60 60" style="enable-background:new -262.5 264.6 60 60;" xml:space="preserve">
<title>Character-17MAR</title>
<path d="M-225.9,294.4v-1.9l2.4-0.4c0.5,0,0.8-0.5,0.8-0.9c0-0.5-0.5-0.8-0.9-0.8c0,0,0,0-0.1,0l-6.2,0.9c-0.5,0.1-0.8,0.5-0.7,1
	c0.1,0.4,0.4,0.7,0.8,0.7h0.1l2.1-0.3v1.6c0,0.5,0.4,0.9,0.9,0.9S-225.9,294.8-225.9,294.4L-225.9,294.4z"/>
<path d="M-208,286.7c-0.4-0.6-1.2-0.9-1.9-0.8l-1,0.2c-0.2-10.4-1.9-16.2-5.1-17.6c-1.3-0.5-2.8-0.4-4,0.3
	c-4.3-3.1-12.7-4.3-17.3-3.2c-9,2.2-12.7,12-15.7,19.8l-0.3,0.9l-1.9-0.4c-1-0.2-2,0.5-2.1,1.5c-0.1,0.5,0,1,0.3,1.4l3.4,4.8
	l-2.3,24.5c-0.1,0.6,0.4,1.1,1,1.2c0.2,0,0.3,0,0.5-0.1l4.1-1.5l1.8,4.5c0.2,0.6,0.8,0.9,1.4,0.7c0.3-0.1,0.5-0.3,0.6-0.5l1.5-2.5
	l3.1,4.1c0.2,0.3,0.5,0.4,0.9,0.4c0.6,0,1.1-0.5,1.1-1.1v-6.6c0.9,0.5,1.8,0.7,2.8,0.8h9.5c0.9,0,1.8-0.2,2.6-0.6v6.6
	c0,0.6,0.5,1.1,1.1,1.1c0.3,0,0.7-0.2,0.9-0.4l3.1-4.1l1.5,2.5c0.3,0.5,1,0.7,1.5,0.4c0.2-0.1,0.4-0.3,0.5-0.5l1.7-4.5l4.1,1.5
	c0.6,0.2,1.2-0.1,1.4-0.7c0-0.1,0.1-0.3,0.1-0.4l-1.5-25.6l2.8-4C-207.6,288.1-207.6,287.3-208,286.7z M-217,270.4
	c1.1,0.5,3.7,3.1,3.8,16l-4.9,0.9c-0.5-0.9-0.8-1.9-0.9-2.9l1.9,0.6h0.2c0.4,0.1,0.7-0.2,0.7-0.5c0.1-0.4-0.2-0.7-0.5-0.7l-2.4-0.7
	v-0.8l2,0.7h0.2c0.4,0.1,0.7-0.2,0.7-0.5c0.1-0.4-0.2-0.7-0.5-0.7l-2.4-0.8v-10.2C-218.4,270.2-217.6,270.1-217,270.4L-217,270.4z
	 M-250.9,286.1c2.8-7.4,6.3-16.6,14.2-18.5c4.1-1,12,0.2,15.6,3v0.5l-10.5-1.5c-0.4-0.1-0.7,0.2-0.7,0.5s0.2,0.7,0.5,0.7l10.6,1.6
	v0.5l-10.5-0.5c-0.4,0-0.6,0.3-0.6,0.6s0.3,0.6,0.6,0.6l10.6,0.5v0.8h-10.6c-0.4,0-0.6,0.3-0.6,0.6c0,0.4,0.3,0.6,0.6,0.6h10.5v1.2
	h-10.1c-3.1,0-6.1,1.2-8.3,3.4l-6.7,6.7l-4.9-0.9L-250.9,286.1z M-247.5,289.5l-1.1,1.9l0,0l-1.3-1.1c-0.3-0.2-0.7-0.2-0.9,0.1
	c-0.2,0.3-0.2,0.7,0.1,0.9l2.1,1.8v3.7l-6.1-8.7L-247.5,289.5z M-242.2,320.1l-2.1-2.8c-0.2-0.3-0.6-0.4-0.9-0.4
	c-0.4,0-0.7,0.2-0.9,0.5l-1.2,2l-1.3-3.4c-0.2-0.6-0.8-0.9-1.4-0.7c0,0,0,0,0,0l-3.5,1.3l1.9-20.4l1,1.4l-1,13.8
	c0,0.3,0.2,0.7,0.6,0.7l0,0c0.4,0,0.7-0.2,0.7-0.6c0,0,0,0,0,0l0.9-12.2l0.9,1.3v5.5c0,1.2,0.4,2.4,1.1,3.4v5.2
	c0,0.4,0.3,0.6,0.6,0.6c0.4,0,0.6-0.3,0.6-0.6v-3.8l0.8,0.8v4c0,0.4,0.3,0.6,0.6,0.6s0.6-0.3,0.6-0.6v-2.6l1.9,1.9c0,0,0,0,0,0.1
	L-242.2,320.1z M-237.3,315.3c-1,0-1.9-0.4-2.6-1.1l-5.6-5.6c-0.7-0.7-1.1-1.6-1-2.6l0.1-14.1l1.4-2.6l7-7c1.8-1.8,4.2-2.8,6.7-2.8
	h10.1v3.6c0,2,0.5,3.9,1.5,5.7l1,1.8V306c0,1-0.4,1.9-1,2.6l-5.6,5.6c-0.7,0.7-1.6,1.1-2.6,1.1L-237.3,315.3z M-211.7,316.8
	l-3.6-1.3c-0.6-0.2-1.2,0.1-1.4,0.6l-1.3,3.4l-1.2-2c-0.2-0.3-0.5-0.5-0.9-0.5c-0.4,0-0.7,0.1-0.9,0.4l-2.1,2.7v-5.1l1.5-1.5v2
	c0,0.4,0.3,0.6,0.6,0.6c0.4,0,0.6-0.3,0.6-0.6v-3.2l0.8-0.8v3.1c0,0.4,0.3,0.6,0.6,0.6c0.4,0,0.6-0.3,0.6-0.6v-4.5l0.1-0.1
	c1.1-1.1,1.7-2.6,1.7-4.1v-5.4l1-1.4v11.5c0,0.4,0.3,0.6,0.6,0.6c0.4,0,0.6-0.3,0.6-0.6v-13.3l1.3-1.8L-211.7,316.8z M-216.4,296.8
	v-3.7l2-1.7c0.3-0.2,0.3-0.6,0.1-0.9s-0.6-0.3-0.9-0.1l0,0l-1.2,1v-1.4l-0.4-0.7l6.5-1.3L-216.4,296.8z"/>
<path d="M-234.9,293h0.1c0.5,0,0.8-0.4,0.8-0.9c0-0.4-0.3-0.8-0.7-0.8l-6.2-0.9c-0.5,0-0.9,0.3-0.9,0.8c0,0.4,0.3,0.8,0.7,0.9
	l2.4,0.4v1.9c0,0.5,0.4,0.9,0.9,0.9c0.5,0,0.8-0.4,0.8-0.9v-1.6L-234.9,293z"/>
<path d="M-231.2,300.9c0.2,0.2,0.5,0.3,0.7,0.1c0.2-0.2,0.3-0.5,0.1-0.7c0,0,0,0,0,0l-0.4-0.5c-0.2-0.2-0.5-0.3-0.7-0.1
	c-0.2,0.2-0.3,0.5-0.1,0.7c0,0,0,0,0,0L-231.2,300.9z"/>
<path d="M-234.4,299.8l-0.4,0.5c-0.2,0.2-0.1,0.5,0.1,0.7c0.2,0.2,0.5,0.1,0.7-0.1c0,0,0,0,0,0l0.4-0.5c0.2-0.2,0.1-0.5-0.1-0.7
	S-234.2,299.6-234.4,299.8C-234.4,299.8-234.4,299.8-234.4,299.8L-234.4,299.8z"/>
<path d="M-231.1,305c-0.8,0.8-2,0.8-2.8,0c-0.2-0.2-0.5-0.2-0.7-0.1s-0.2,0.5-0.1,0.7c0,0,0,0,0.1,0.1c1.2,1.1,3,1.1,4.2,0
	c0.2-0.2,0.2-0.5,0-0.7C-230.6,304.8-230.9,304.8-231.1,305L-231.1,305z"/>
<path d="M-229,303.7l-2.3-0.6c-0.3,0-0.5,0-0.8,0.1l-0.2,0.1c-0.1,0-0.3,0-0.4,0l-0.3-0.1c-0.3-0.1-0.6-0.1-0.9,0l-2,0.6
	c-0.3,0-0.5,0.3-0.4,0.6c0,0.3,0.3,0.5,0.6,0.4h0.1l2-0.6c0.1,0,0.2,0,0.3,0l0.3,0.1c0.4,0.1,0.7,0.1,1.1,0l0.2-0.1
	c0.1,0,0.1,0,0.2,0l2.3,0.6c0.3,0.1,0.6-0.1,0.6-0.4C-228.6,304.1-228.8,303.8-229,303.7L-229,303.7z"/>
<path d="M-231,308.2h-2.9c-0.3,0-0.5,0.2-0.5,0.5c0,0.3,0.2,0.5,0.5,0.5h2.9c0.3,0,0.5-0.2,0.5-0.5
	C-230.5,308.4-230.7,308.2-231,308.2z"/>
</svg>
