<?xml version="1.0" encoding="utf-8"?>
<!-- Generator: Adobe Illustrator 19.0.0, SVG Export Plug-In . SVG Version: 6.00 Build 0)  -->
<svg version="1.1" id="Layer_1" xmlns="http://www.w3.org/2000/svg" xmlns:xlink="http://www.w3.org/1999/xlink" x="0px" y="0px"
	 viewBox="-239 260.5 80 80" style="enable-background:new -239 260.5 80 80;" xml:space="preserve">
<g>
	<path d="M-162.5,304.1l0-0.1l-0.1-0.1c-1.2-1.8-2.9-2.9-5.1-3.1c0.1-1.6-0.2-2.9-1-3.7c-0.2-0.2-0.4-0.4-0.7-0.5
		c0.8-0.8,1.3-1.6,1.5-2.7c0.6-2.6-1.1-5.1-1.2-5.2l-1.4-2l0.1,2.5c0.1,1-0.1,1.8-0.5,2.1c-0.2,0.2-0.5,0.3-0.9,0.3
		c-0.3,0-0.6-0.1-0.6-0.1l0,0c-2.7-0.7-2.9-4.2-2.9-4.3l0,0c-0.2-2.9-1.5-4.3-1.5-4.3l0,0c-1.1-1.1-2.2-1.6-3.3-1.6
		c-0.4,0-0.9,0.1-1.3,0.2c0-3.1-0.9-8.7-6.2-13.4c-0.3-0.4-3.1-3.1-7.9-3.1c-1.2,0-2.5,0.2-3.8,0.6c-0.1,0-0.3,0-0.6,0
		c-1.3,0-3-0.4-3.6-2.4l-0.7-2.6l-0.6,2.6c0,0.1-0.5,2.4,0.4,4.2c-0.3,0.2-0.7,0.5-1,0.9l-0.1,0.1l0,0.1c0,0-0.9,1.7-2.2,1.7
		c-0.3,0-0.6-0.1-0.9-0.2l-0.1,0l-0.1,0c-0.2-0.1-1.7-0.6-1.3-2.7l0.3-1.5l-1.3,0.7c-0.3,0.2-2.7,1.6-2.8,3.6c0,0.5,0.1,0.9,0.3,1.4
		c-1,0.1-2.4,0.5-3.4,1.9c-0.2,0.2-1.1,1.3-1.6,3.4c-0.1,0.3-0.8,1.6-2.1,1.6c-0.8,0-1.7-0.4-2.7-1.3l-0.8-0.7l-0.3,1
		c0,0.1-0.5,1.8,0.6,3.5c-1.2,1.5-3.8,4.1-5.7,4.1c-0.4,0-1.1-0.1-1.7-1.2l-1.3,0.6c0.5,1.5,2.3,4.2,5.6,4.4c0,0.7,0,1.7,0.6,2.6
		c0.1,0.2,0.1,0.5,0,0.7c-0.3,1.1-1.7,2.5-2.4,2.8l-0.1,0l-0.1,0c-0.1,0-0.4,0.2-0.6,0.2c-0.1,0-0.4,0-0.6-0.6l-1.3,0.4
		c0.2,0.8,1,2.4,2.6,2.6c-0.2,0.5-0.3,1.2-0.2,1.9c0.1,0.4,0.2,0.8,0.4,1.1c-3-0.2-5.3,0.9-6.8,3.2l-0.1,0.1l0,0.1
		c-0.1,0.2-1.4,5.5,1.7,9.6c2.1,2.8,5.7,4.3,10.7,4.4l0-1.3c0.3,0.2,0.7,0.6,0.5,1.1l0,0.1c0,0.1-0.8,2.1,0.1,3.8
		c0.5,0.9,1.3,1.6,2.5,1.9l2,0.6l-1.3-1.7c0,0-0.7-0.9-0.2-1.6c0.2-0.2,0.8-0.6,1.4-1.2l0.9,2.6l7.2,3.5c-1.1,2.6-1,4.8,0,6.5
		c1.6,2.4,4.9,3.2,6.6,3.4c-0.4,0.7-0.8,1.5-1.2,2.3l-0.5,1l1.1,0c0,0,0.4,0,1,0l0,0c1.1,0,3.4,0,5.4-0.3c2.7-0.4,4.1-1.1,4.4-2.1
		c0.1-0.3,0.1-0.7,0-1c1.8-0.3,4.7-1.1,6.1-3.3c1.1-1.7,1.1-3.9,0-6.6l6.9-3.4l0.5-1.4c0.4,0.5,0.8,0.8,1,0.9
		c0.5,0.7-0.2,1.6-0.2,1.7l-1.3,1.7l2-0.6c1.2-0.3,2-1,2.5-1.9c0.9-1.7,0.1-3.7,0.1-3.8l0-0.1c-0.3-0.6,0.5-1.1,0.6-1.2l0,0l0,0
		c0.1-0.1,0.1-0.1,0.2-0.2l0,0.9c5-0.1,8.6-1.6,10.7-4.4C-161.2,309.6-162.5,304.3-162.5,304.1z M-232.6,312.5
		c-2.5-3.2-1.7-7.6-1.5-8.3c1.3-1.9,3.3-2.7,6-2.4c0.8,0.1,1.6,0.3,2.2,0.5c0,0.9,0.6,1.7,1.2,2.5c1.3,1.7-0.1,3.9-0.8,4.6l-1,1
		l1.4,0.2c0.4,0.1,0.7,0.1,1,0.7l0,0l0,0c0,0.1,0.2,0.6-0.2,1.3c-0.2,0.2-0.5,0.7-0.5,1.4c0,0.8,0.5,1.5,1.4,2.2l0,0
		C-227.7,316.2-230.8,314.9-232.6,312.5z M-220.4,319.5L-220.4,319.5l-0.2,0.2c-0.4,0.5-0.5,1-0.5,1.5c-0.1-0.1-0.1-0.2-0.2-0.3
		c-0.5-1-0.1-2.4,0-2.6c0.7-1.4-0.4-2.5-1.2-3c-0.5-0.4-0.8-0.8-0.8-1.1c0-0.2,0.1-0.4,0.2-0.4l0.1-0.1l0.1-0.1
		c0.7-1.2,0.5-2.3,0.3-2.7c-0.3-0.7-0.7-1-1-1.2c0.9-1.4,1.7-3.7,0.2-5.5c-0.3-0.4-0.6-0.8-0.7-1.1c0.1,0,0.1,0.1,0.1,0.1l0.6-1.2
		c0,0-0.6-0.3-1.4-0.6l-1.8-0.8c-0.5-0.4-0.8-0.8-0.9-1.3c-0.2-1,0.6-2,0.6-2.1l1.3-1.8l-2.1,0.7c-0.1,0-0.2,0.1-0.3,0.1
		c0,0,0.1,0,0.1-0.1c1.1-0.5,2.7-2.2,3.1-3.6c0.3-0.9,0.1-1.5-0.2-1.9c-0.7-1.1-0.3-2.4-0.3-2.4l0.3-1l-1,0.1c-0.2,0-0.3,0-0.5,0
		c-1.2,0-2.1-0.4-2.8-0.9c3.2-0.1,6.7-4.6,7.1-5.1l0.3-0.5l-0.4-0.4c-0.5-0.5-0.6-1.1-0.7-1.5c0.9,0.5,1.7,0.8,2.5,0.8
		c2.4,0,3.4-2.4,3.4-2.5l0-0.1l0-0.1c0.4-2,1.2-2.8,1.2-2.8l0,0l0-0.1c0.7-0.9,1.5-1.3,2.7-1.3c0.8,0,1.4,0.2,1.4,0.2l0.6-1.2
		c-0.9-0.6-1.3-1.1-1.3-1.7c0-0.6,0.5-1.2,1-1.7c0.2,1.6,1.4,2.5,2.3,2.8c0.5,0.2,1,0.4,1.5,0.4c2,0,3.1-1.9,3.4-2.4
		c0.3-0.4,0.7-0.6,1-0.6l1.3-0.1l-0.8-1c-0.4-0.5-0.6-1.1-0.7-1.7c0.9,0.8,2.2,1.3,3.7,1.3c0.5,0,0.9-0.1,0.9-0.1l0.1,0
		c1.2-0.3,2.4-0.5,3.5-0.5c4.4,0,6.8,2.6,6.9,2.6l0.1,0.1c5.7,5,5.9,11.1,5.7,13.6l-0.1,1.6l1.3-1c0.5-0.4,1.1-0.6,1.6-0.6
		c0.7,0,1.5,0.4,2.3,1.2c0.1,0.1,1,1.2,1.1,3.5c0,0.3,0.3,4.5,3.9,5.5c0.1,0,0.5,0.2,1,0.2c0.8,0,1.4-0.3,1.9-0.8
		c0.2-0.2,0.3-0.4,0.5-0.7c0.2,0.6,0.3,1.4,0.1,2.1c-0.2,1-0.9,1.9-2,2.6l-2.2,1.3l2.5,0c0,0,0.6,0,1.1,0.5c0.4,0.5,0.7,1.3,0.6,2.3
		l-1.4,0.5c-2.2,0.3-3.9,1.2-4,1.2l0.5,1c0.1,0.7-0.1,1.3-0.8,1.8c-1.1,0.8-1.3,1.7-1.3,2.3c0,0.9,0.6,1.7,1.1,2.2
		c-0.3,0.4-0.6,0.9-0.8,1.4l-3.6,1.1c0,0-0.1,0-0.1,0c-0.2,0-0.3-0.1-0.4-0.2c-0.1-0.1-0.3-0.4-0.3-1.2c0.2,0.1,0.4,0.2,0.7,0.2
		c0.3,0,0.6-0.1,0.9-0.2c0.5-0.3,1.3-1.2,0.7-2.7c-0.5-1.7-1-4.3-0.6-5.1l0-0.1l0-0.1c0,0,0.2-1.1,1.2-1.5l-0.4-1.3
		c0,0-0.3,0.1-0.7,0.1c-1.2,0-2-0.5-2.4-1.6c0.8-0.4,1.6-1.2,1.5-2.7c0-0.5,0-4.2-3-8.8c-1.7-2.9-2.5-2.9-2.7-2.9
		c-0.1,0-0.9,0.1-1,1.1l0,0.1l0,0.1c0,0.1,0.1,0.3,0.2,0.5c-0.9-0.1-2.1-0.4-3.1-1.8c0,0-0.7-0.8-1.1-2l-0.5-1.3l-0.7,1.1
		c-0.9,1.4-2,2.1-3.5,2.1c-0.6,0-1.3-0.1-2.1-0.4l-0.7-0.2l-0.2,0.7c-0.9,3.4-3.6,5.1-8,5.1c-0.6,0-1.2,0-1.8-0.1
		c-0.9-0.2-2.7-0.9-3.3-1.8c1-0.3,2.9-1,3.9-2.3l0.8-1.2l-1.4,0.1c-3.3,0.2-5.9,1.3-7.8,3.4c-3.3,3.7-3.1,9-3.1,9.2l0,0.3l0.2,0.2
		c0.2,0.1,0.4,0.3,0.6,0.3c-0.4,1.1-1.3,1.6-2.4,1.6c-0.4,0-0.7-0.1-0.7-0.1l-0.4,1.3c1,0.4,1.2,1.4,1.2,1.5l0,0.1l0,0.1
		c0.3,0.8-0.2,3.4-0.6,5.1c-0.6,1.5,0.2,2.4,0.7,2.7c0.3,0.2,0.6,0.3,0.9,0.3c0.3,0,0.5-0.1,0.7-0.2c0,0.8-0.1,1.2-0.3,1.3
		c0,0-0.1,0.2-0.3,0.2c0,0,0,0,0,0l-2.5-0.7l1.8,1.9c1,1,1.6,2.3,1.7,2.4C-217,317.2-220.4,319.5-220.4,319.5z M-208.8,331.2
		c-0.8-1.3-0.8-3,0-5.1l9.2,4.5c-0.9,0.6-1.9,1.8-3,3.5C-203.6,334-207.3,333.6-208.8,331.2z M-197,332.9c-1.8,0.9-3.6,2-5,2.8
		c2.3-3.8,3.5-4.2,3.9-4.2C-197.5,331.4-197.2,332.2-197,332.9z M-194.7,335.8c-0.2,0.6-2.3,1.4-7.3,1.5c1.4-0.9,3.6-2.2,5.7-3.2
		c0.8,0.5,1.2,1,1.4,1.3l0,0.1c0,0,0,0,0,0C-194.7,335.6-194.6,335.7-194.7,335.8z M-188.4,331.2c-1.3,2-4.4,2.6-5.8,2.8
		c-0.2-0.2-0.4-0.4-0.7-0.6c0.9-0.4,1.7-0.7,2.4-0.9l-0.3-1.3c-0.8,0.2-1.8,0.6-2.9,1.1c-0.3-0.8-0.8-1.7-1.5-2l8.7-4.3
		C-187.6,328.1-187.6,329.9-188.4,331.2z M-181.3,321l-17.5,8.5l-17.5-8.5l-1-2.8c0.7-1.1,1.2-2.5,0.6-4.1l0,0c0-0.1-0.4-1-1.2-2
		c0.1-0.1,0.2-0.2,0.4-0.3c0.6-0.8,0.7-2.1,0.3-4.1l-0.6-2.7l-0.7,2.6c-0.1,0.4-0.4,0.8-0.5,0.8c0,0-0.1,0-0.2-0.1l0,0l0,0
		c-0.2-0.1-0.3-0.4,0-1l0-0.1c0.2-0.7,1.2-4.4,0.6-6c0-0.2-0.2-0.7-0.5-1.2c1.5-0.3,2.6-1.5,3-3.2l0.2-0.8l-0.8-0.1
		c0,0-0.2,0-0.4-0.1c0-1.2,0.2-5.1,2.7-7.8c0.6-0.6,1.2-1.2,2-1.6v0.2c0,2.5,4.1,3.5,4.6,3.6l0.1,0c0.7,0.1,1.4,0.1,2,0.1
		c5.8,0,8.2-2.8,9.1-5.5c0.6,0.2,1.3,0.3,1.8,0.3c1.6,0,2.9-0.6,4-1.8c0.4,0.8,0.8,1.2,0.8,1.3c1.5,1.9,3.3,2.3,4.5,2.3
		c0.9,0,1.4-0.2,1.5-0.2l-0.1-0.4c0.2,0.3,0.5,0.7,0.7,1.1l0,0c2.9,4.5,2.8,8.1,2.8,8.1l0,0l0,0c0.1,1.2-0.8,1.4-1,1.4l-0.8,0.1
		l0.2,0.8c0.4,1.7,1.5,2.9,3,3.2c-0.3,0.5-0.4,1-0.5,1.2c-0.6,1.6,0.4,5.3,0.6,6l0,0.1c0.2,0.6,0.1,0.9,0,1l-0.1,0
		c-0.1,0-0.1,0.1-0.2,0.1c-0.1,0-0.4-0.4-0.5-0.8l-0.7-2.6l-0.6,2.7c-0.4,1.9-0.3,3.2,0.3,4c0.1,0.1,0.2,0.2,0.3,0.3
		c-0.8,0.9-1.1,1.8-1.1,1.9c-0.6,1.8,0,3.5,0.9,4.7L-181.3,321z M-175.9,316.2c-0.7,0.4-1.9,1.6-1.2,3c0.1,0.2,0.5,1.6,0,2.6
		c-0.1,0.1-0.1,0.2-0.2,0.3c0-0.5-0.1-1-0.5-1.5l-0.1-0.1l-0.1-0.1c0,0-3.4-2.7-2.4-5.3c0,0,0.5-1.3,1.7-2.1l3-2.1
		c-0.1,0.3-0.1,0.5-0.1,0.7c-0.1,0.3-0.2,1.4,0.5,2.7l0.1,0.1l0.1,0.1c0,0,0.2,0.2,0.1,0.4C-175.1,315.3-175.4,315.7-175.9,316.2z
		 M-165.4,312.8c-1.8,2.3-4.8,3.6-9.1,3.8c0.5-0.5,0.7-1.1,0.7-1.6c0-0.7-0.3-1.2-0.5-1.4c-0.5-0.9-0.3-1.6-0.3-1.6l0-0.1l0-0.1
		c0-0.7,0.5-1.6,0.8-1.8l2.9,0.5l-2.6-1.8c-0.6-0.4-1.2-1.1-1.2-1.7c0-0.4,0.2-0.8,0.7-1.2c1-0.8,1.5-1.8,1.4-2.9l2.3-0.9
		c2.1-0.3,4.7,0,6.4,2.4C-163.7,305.3-162.9,309.6-165.4,312.8z"/>
	<circle cx="-209.1" cy="303.1" r="2.4"/>
	<circle cx="-189.8" cy="303.1" r="2.4"/>
	<path d="M-199,306.1c-1.5,0-2.7,1-2.7,2.1s1.2,2.1,2.7,2.1c1.5,0,2.7-1,2.7-2.1S-197.5,306.1-199,306.1z M-199,309.4
		c-1,0-1.8-0.6-1.8-1.2c0-0.7,0.8-1.2,1.8-1.2c1,0,1.8,0.6,1.8,1.2C-197.2,308.9-198,309.4-199,309.4z"/>
</g>
</svg>
