<?xml version="1.0" encoding="iso-8859-1"?>
<!-- Generator: Adobe Illustrator 19.0.0, SVG Export Plug-In . SVG Version: 6.00 Build 0)  -->
<svg version="1.1" id="Capa_1" xmlns="http://www.w3.org/2000/svg" xmlns:xlink="http://www.w3.org/1999/xlink" x="0px" y="0px"
	 viewBox="0 0 512 512" style="enable-background:new 0 0 512 512;" xml:space="preserve">
<g>
	<g>
		<path d="M423.267,123.375c-12.573-40.614-39.549-75.287-75.96-97.631c-3.583-2.199-8.27-1.077-10.468,2.506
			c-2.198,3.582-1.077,8.269,2.507,10.468c33.26,20.411,57.9,52.075,69.38,89.158c1.011,3.267,4.02,5.362,7.268,5.362
			c0.746,0,1.504-0.111,2.253-0.342C422.262,131.653,424.51,127.39,423.267,123.375z"/>
	</g>
</g>
<g>
	<g>
		<path d="M326.521,14.835C304.236,4.991,280.509,0,255.995,0c-38.097,0-74.339,12.076-104.809,34.924
			c-29.452,22.084-51.631,53.496-62.452,88.452c-1.243,4.015,1.005,8.278,5.02,9.521c0.75,0.232,1.507,0.342,2.253,0.342
			c3.248,0,6.258-2.097,7.268-5.362c9.879-31.914,30.138-60.599,57.042-80.774c27.815-20.856,60.899-31.879,95.677-31.879
			c22.381,0,44.04,4.555,64.375,13.537c3.845,1.698,8.339-0.042,10.038-3.887C332.106,21.028,330.366,16.534,326.521,14.835z"/>
	</g>
</g>
<g>
	<g>
		<path d="M369.225,423.557c-2.971-2.972-7.791-2.972-10.763,0c-27.371,27.371-63.757,42.446-102.456,42.446
			c-38.705,0-75.095-15.074-102.467-42.446c-2.971-2.974-7.791-2.972-10.763,0s-2.972,7.792,0,10.763
			c30.246,30.246,70.458,46.904,113.23,46.904c42.764,0,82.974-16.658,113.22-46.904
			C372.198,431.347,372.198,426.528,369.225,423.557z"/>
	</g>
</g>
<g>
	<g>
		<path d="M280.9,252c-4.203,0-7.611,3.408-7.611,7.611v54.292c0,9.532-7.755,17.288-17.288,17.288s-17.288-7.755-17.288-17.288
			v-54.292c0-4.203-3.408-7.611-7.611-7.611c-4.203,0-7.611,3.408-7.611,7.611v54.292c0,17.926,14.584,32.51,32.51,32.51
			s32.51-14.584,32.51-32.51v-54.292C288.511,255.407,285.103,252,280.9,252z"/>
	</g>
</g>
<g>
	<g>
		<path d="M362.848,257.541h-49.607c-4.203,0-7.611,3.408-7.611,7.611c0,4.203,3.408,7.611,7.611,7.611h25.052v10.706
			c0,4.203,3.408,7.611,7.611,7.611c4.203,0,7.611-3.408,7.611-7.611v-10.706h9.333c4.203,0,7.611-3.408,7.611-7.611
			C370.459,260.948,367.052,257.541,362.848,257.541z"/>
	</g>
</g>
<g>
	<g>
		<path d="M203.34,257.541h-49.607c-4.203,0-7.611,3.408-7.611,7.611c0,4.203,3.408,7.611,7.611,7.611h24.555v10.706
			c0,4.203,3.408,7.611,7.611,7.611c4.203,0,7.611-3.408,7.611-7.611v-10.706h9.83c4.203,0,7.611-3.408,7.611-7.611
			C210.952,260.948,207.544,257.541,203.34,257.541z"/>
	</g>
</g>
<g>
	<g>
		<path d="M287.45,382.814c-20.868-2.729-42.032-2.729-62.9,0c-4.168,0.545-7.105,4.366-6.56,8.534
			c0.545,4.168,4.365,7.111,8.534,6.56c19.558-2.558,39.393-2.558,58.952,0c0.335,0.044,0.668,0.065,0.997,0.065
			c3.764,0,7.037-2.792,7.537-6.625C294.555,387.179,291.618,383.359,287.45,382.814z"/>
	</g>
</g>
<g>
	<g>
		<path d="M417.076,141.349H153.591c-4.203,0-7.611,3.408-7.611,7.611s3.408,7.611,7.611,7.611h263.485
			c5.858,0,10.624,4.766,10.624,10.624v50.145c0,5.858-4.766,10.624-10.624,10.624H94.925c-5.859,0-10.624-4.766-10.624-10.624
			v-50.145c0-5.859,4.766-10.624,10.624-10.624h33.294c4.203,0,7.611-3.408,7.611-7.611s-3.408-7.611-7.611-7.611H94.925
			c-14.252,0-25.847,11.595-25.847,25.847v50.145c0,14.252,11.595,25.847,25.847,25.847h322.151
			c14.251,0,25.847-11.595,25.847-25.847v-50.145C442.923,152.944,431.329,141.349,417.076,141.349z"/>
	</g>
</g>
<g>
	<g>
		<path d="M123.664,250.365c-4.203,0-7.611,3.408-7.611,7.611v232.635L67.38,460.004l15.206-201.455
			c0.317-4.191-2.825-7.846-7.017-8.162c-4.184-0.321-7.847,2.825-8.162,7.017l-15.552,206.03c-0.212,2.813,1.149,5.515,3.538,7.017
			l64.219,40.383c1.236,0.777,2.643,1.168,4.052,1.168c1.266,0,2.533-0.316,3.68-0.949c2.425-1.34,3.93-3.892,3.93-6.662V257.976
			C131.275,253.772,127.867,250.365,123.664,250.365z"/>
	</g>
</g>
<g>
	<g>
		<path d="M460.145,463.433l-15.552-206.029c-0.317-4.191-3.969-7.34-8.162-7.017c-4.191,0.317-7.333,3.971-7.017,8.162
			l15.206,201.455l-48.673,30.608V257.976c0-4.203-3.408-7.611-7.611-7.611c-4.203,0-7.611,3.408-7.611,7.611v246.413
			c0,2.771,1.505,5.323,3.93,6.662c1.148,0.634,2.414,0.949,3.68,0.949c1.41,0,2.816-0.391,4.052-1.168l64.219-40.383
			C458.996,468.946,460.358,466.246,460.145,463.433z"/>
	</g>
</g>
<g>
</g>
<g>
</g>
<g>
</g>
<g>
</g>
<g>
</g>
<g>
</g>
<g>
</g>
<g>
</g>
<g>
</g>
<g>
</g>
<g>
</g>
<g>
</g>
<g>
</g>
<g>
</g>
<g>
</g>
</svg>
