<?xml version="1.0" encoding="utf-8"?>
<!-- Generator: Adobe Illustrator 19.0.0, SVG Export Plug-In . SVG Version: 6.00 Build 0)  -->
<svg version="1.1" id="Layer_1" xmlns="http://www.w3.org/2000/svg" xmlns:xlink="http://www.w3.org/1999/xlink" x="0px" y="0px"
	 viewBox="-265 271 60 60" style="enable-background:new -265 271 60 60;" xml:space="preserve">
<title>Monster-17MAR</title>
<path d="M-210.3,293.7h-4.1v-3.2c0-10.3-8.3-18.6-18.6-18.6h-4.3c-10.3,0-18.6,8.3-18.6,18.6v3.2h-4c-1.5,0-2.7,1.2-2.7,2.7v5.4
	c0,1.2,0.5,2.4,1.4,3.3l5.4,5.4v4.5c0,2.9,0.7,5.7,2.1,8.2l0.9,1.6c2.1,3.8,6,6.1,10.4,6.1h14.6c4.2,0,8-2.2,10.2-5.8l1-1.7l0,0
	c1.5-2.6,2.4-5.6,2.4-8.7v-4.2l5.4-5.4c0.9-0.9,1.4-2.1,1.4-3.3v-5.5C-207.6,294.9-208.8,293.7-210.3,293.7z M-259.6,303.5
	c-0.4-0.4-0.7-1-0.7-1.6v-5.4c0-0.2,0.2-0.4,0.4-0.4h4.1v2.6h-1.8c-0.6,0-1.1,0.5-1.1,1.1v1.7c0,0.4,0.3,0.7,0.7,0.7
	c0.4,0,0.7-0.3,0.7-0.7v-1.4h1.5v7.2L-259.6,303.5z M-248,314.2l-1.2-1.8c-0.1-0.2-0.1-0.4-0.1-0.5l1-3.7c0.1-0.3,0.4-0.5,0.7-0.5
	l5.2,0.9c0.3,0,0.5,0.2,0.5,0.5l0.2,0.9c0.1,0.3,0,0.5-0.3,0.7l-1.6,1.1c-0.8,0.6-1.1,1.7-0.7,2.6l1.5,3.2c0.2,0.3,0,0.7-0.3,0.9
	c0,0,0,0,0,0l-1.9,0.9c-0.5,0.2-0.9,0.6-1.1,1.1l-1.3,3.1c-0.1,0.3-0.5,0.5-0.8,0.4l-2.5-0.8c-0.3-0.1-0.5-0.5-0.4-0.8l0.6-2.1
	c0-0.1,0.1-0.1,0.1-0.2l2.4-3.3C-247.6,315.8-247.7,314.9-248,314.2L-248,314.2z M-219.8,324c-1.7,2.9-4.8,4.6-8.1,4.7h-14.6
	c-3.1,0-6-1.5-7.8-4.1l1.8,0.6c0.2,0.1,0.4,0.1,0.6,0.1c0.8,0,1.6-0.5,1.9-1.3l1.3-3.1c0.1-0.2,0.2-0.3,0.3-0.3l2-0.9
	c1-0.5,1.5-1.7,1.1-2.7c0,0,0-0.1-0.1-0.1l-1.5-3.2c-0.1-0.3-0.1-0.6,0.2-0.8l1.6-1.1c0.7-0.5,1-1.4,0.8-2.2l-0.2-0.9
	c-0.2-0.8-0.8-1.3-1.6-1.5l-5.2-0.9c-1-0.2-2,0.5-2.3,1.5l-1,3.7c-0.2,0.6-0.1,1.2,0.3,1.7l1.2,1.8c0.2,0.2,0.2,0.5,0,0.7l-2.4,3.3
	c-0.1,0.2-0.2,0.4-0.3,0.6l-0.4,1.4c-0.8-1.9-1.3-3.9-1.3-6v-24.6c0-8.9,7.2-16.2,16.2-16.2h4.3c8.5,0,15.6,6.6,16.1,15.1l-3.3-0.9
	c-1-0.3-2.1,0.2-2.5,1.2l-1.1,2.8c-0.1,0.3-0.3,0.4-0.6,0.4h-3.3c-0.9,0-1.7,0.6-2,1.5l-0.6,2.1c-0.2,0.7-0.1,1.4,0.4,2l2.1,2.4
	l-4.6,0.6c-0.6,0.1-1.1,0.7-1,1.4c0.1,0.6,0.6,1,1.2,1h0.2l4-0.6v2.4c0,0.7,0.5,1.2,1.2,1.2c0.7,0,1.2-0.5,1.2-1.2v-2.4l0.7,0.8
	c0.2,0.2,0.4,0.4,0.6,0.5l1.5,0.8c0.3,0.1,0.4,0.5,0.4,0.8l-0.9,3.4c-0.1,0.4-0.1,0.8,0,1.2l1,2.8c0,0.1,0,0.2,0,0.4l-1,4.1
	c-0.2,0.8,0.1,1.6,0.7,2.1l3.4,2.7L-219.8,324z M-216.8,314.8c0,2.3-0.6,4.6-1.6,6.7l-3.2-2.5c-0.2-0.2-0.3-0.4-0.2-0.7l1-4.1
	c0.1-0.4,0.1-0.8,0-1.1l-1-2.8c0-0.1,0-0.3,0-0.4l0.9-3.4c0.2-0.9-0.2-1.9-1.1-2.4l-1.5-0.8c-0.1,0-0.1-0.1-0.2-0.2l-0.4-0.4
	l2.9-0.4c0.6-0.1,1.1-0.7,0.9-1.4c-0.1-0.6-0.7-1-1.3-1l-4.5,0.7l-2.7-3.1c-0.2-0.2-0.2-0.4-0.1-0.6l0.6-2.1
	c0.1-0.3,0.3-0.5,0.6-0.5h3.3c0.8,0,1.6-0.5,1.9-1.3l1.1-2.8c0.1-0.3,0.5-0.5,0.8-0.4l3.7,1.1L-216.8,314.8z M-210,301.9
	c0,0.6-0.2,1.2-0.7,1.6l-3.7,3.7v-7.1h1.5v1.4c0,0.4,0.3,0.7,0.7,0.7s0.7-0.3,0.7-0.7v-1.7c0-0.6-0.5-1.1-1.1-1.1h-1.8V296h4.1
	c0.2,0,0.4,0.2,0.4,0.4L-210,301.9z M-233.7,317.3c-0.5-0.5-0.5-1.2,0-1.7l3-2.9c0.5-0.5,1.2-0.4,1.7,0c0.5,0.5,0.4,1.2,0,1.7
	l-3,2.9C-232.5,317.8-233.3,317.8-233.7,317.3L-233.7,317.3z M-238.3,317.3l-3-2.9c-0.5-0.5-0.5-1.2,0-1.7c0.5-0.5,1.2-0.5,1.7,0
	l3.1,3c0.5,0.5,0.5,1.2,0,1.7S-237.7,317.8-238.3,317.3L-238.3,317.3z M-226.6,321.1c0,0.7-0.5,1.2-1.2,1.2h-14.5
	c-0.7,0-1.2-0.5-1.2-1.2s0.5-1.2,1.2-1.2h14.5C-227.1,319.9-226.6,320.4-226.6,321.1L-226.6,321.1z M-238.3,303.8l-4-0.6v2.4
	c0,0.7-0.5,1.2-1.2,1.2s-1.2-0.5-1.2-1.2v-2.8l-4.3-0.6c-0.7-0.1-1.1-0.7-1.1-1.3s0.7-1.1,1.3-1.1c0,0,0.1,0,0.1,0l10.7,1.6
	c0.6,0.1,1.1,0.7,1,1.4c-0.1,0.6-0.6,1-1.2,1L-238.3,303.8z"/>
</svg>
