<?xml version="1.0" encoding="iso-8859-1"?>
<!-- Generator: Adobe Illustrator 17.1.0, SVG Export Plug-In . SVG Version: 6.00 Build 0)  -->
<!DOCTYPE svg PUBLIC "-//W3C//DTD SVG 1.1//EN" "http://www.w3.org/Graphics/SVG/1.1/DTD/svg11.dtd">
<svg version="1.1" id="Capa_1" xmlns="http://www.w3.org/2000/svg" xmlns:xlink="http://www.w3.org/1999/xlink" x="0px" y="0px"
	 viewBox="0 0 216.859 216.859" style="enable-background:new 0 0 216.859 216.859;" xml:space="preserve">
<path d="M163.06,140.223v39.254c0,3.376-2.747,6.124-6.124,6.124H59.922c-3.376,0-6.123-2.747-6.123-6.124v-39.254
	c0-3.376,2.747-6.123,6.123-6.123h97.015C160.313,134.099,163.06,136.846,163.06,140.223z M215.025,140.408v39.858
	c0,8.455-6.879,15.333-15.334,15.333h-9.295c-0.95,11.88-10.915,21.259-23.035,21.259H49.498c-12.12,0-22.085-9.379-23.035-21.259
	h-9.296c-8.455,0-15.333-6.878-15.333-15.333v-39.858c0-8.455,6.878-15.333,15.333-15.333h9.215V55.517
	c0-12.746,10.37-23.116,23.116-23.116h27.509v-4.885C77.007,12.344,89.35,0,104.523,0h7.813c15.173,0,27.517,12.344,27.517,27.516
	v4.885h27.509c12.746,0,23.116,10.37,23.116,23.116v69.558h9.214C208.146,125.075,215.025,131.954,215.025,140.408z M87.007,32.401
	h42.846v-4.885c0-9.658-7.858-17.516-17.517-17.516h-7.813c-9.658,0-17.517,7.858-17.517,17.516V32.401z M173.06,140.223
	c0-8.891-7.233-16.123-16.124-16.123H59.922c-8.891,0-16.123,7.233-16.123,16.123v39.254c0,8.891,7.232,16.124,16.123,16.124h97.015
	c8.891,0,16.124-7.233,16.124-16.124V140.223z M173.06,66.441c0-9.783-7.959-17.742-17.742-17.742H61.54
	c-9.782,0-17.741,7.959-17.741,17.742v17.182c0,2.761,2.238,5,5,5s5-2.239,5-5V66.441c0-4.269,3.473-7.742,7.741-7.742h93.778
	c4.27,0,7.742,3.473,7.742,7.742v14.835c0,2.761,2.238,5,5,5c2.762,0,5-2.239,5-5V66.441z"/>
<g>
</g>
<g>
</g>
<g>
</g>
<g>
</g>
<g>
</g>
<g>
</g>
<g>
</g>
<g>
</g>
<g>
</g>
<g>
</g>
<g>
</g>
<g>
</g>
<g>
</g>
<g>
</g>
<g>
</g>
</svg>
