<?xml version="1.0" encoding="utf-8"?>
<svg version="1.1" id="Capa_1" xmlns="http://www.w3.org/2000/svg" xmlns:xlink="http://www.w3.org/1999/xlink" x="0px" y="0px"
	 viewBox="-283 271 60 60" style="enable-background:new -283 271 60 60;" xml:space="preserve">
<g>
	<path d="M-226.8,279.8l-25.4-7.9c-0.3-0.1-0.6-0.1-0.8-0.1c-0.3,0-0.6,0-0.8,0.1l-25.4,7.9c-1.2,0.4-2,1.5-2,2.7
		c0.6,33,15.9,42.1,27,47.4c0.1,0.1,0.7,0.3,1.2,0.3c0.5,0,1.1-0.3,1.2-0.3c11-5.3,26.4-14.4,27-47.4
		C-224.8,281.3-225.6,280.2-226.8,279.8z M-239.7,312.6l-1.4,1.4c-0.6,0.6-1.5,0.6-2,0l-3.7-3.7l-1.5,1.5c-0.2,0.2-0.4,0.3-0.7,0.3
		c-0.3,0-0.5-0.1-0.7-0.3l-0.5-0.5c-0.4-0.4-0.4-1,0-1.4l1.2-1.2l-4-3.3l-4,3.3l1.2,1.2c0.4,0.4,0.4,1,0,1.4l-0.5,0.5
		c-0.2,0.2-0.4,0.3-0.7,0.3c-0.3,0-0.5-0.1-0.7-0.3l-1.5-1.5l-3.7,3.7c-0.6,0.6-1.5,0.6-2,0l-1.4-1.4c-0.3-0.3-0.4-0.6-0.4-1
		s0.2-0.7,0.4-1l3.7-3.7l-1.5-1.5c-0.4-0.4-0.4-1,0-1.4l0.5-0.5c0.4-0.4,1-0.4,1.4,0l1.6,1.6l3.1-3.7l-7.9-6.6
		c-0.3-0.3-0.6-0.7-0.6-1.1l-0.7-4.6c-0.1-0.6,0.1-1.1,0.5-1.5c0.4-0.4,1-0.6,1.5-0.5l4.6,0.7c0.4,0.1,0.8,0.3,1.1,0.6l5.9,7.1
		l5.9-7.1c0.3-0.3,0.7-0.6,1.1-0.6l4.6-0.7c0.6-0.1,1.1,0.1,1.5,0.5c0.4,0.4,0.6,1,0.5,1.5l-0.7,4.6c-0.1,0.4-0.3,0.8-0.6,1.1
		l-7.9,6.6l3.1,3.7l1.6-1.6c0.4-0.4,1-0.4,1.4,0l0.5,0.5c0.4,0.4,0.4,1,0,1.4l-1.5,1.5l3.7,3.7c0.3,0.3,0.4,0.6,0.4,1
		C-239.3,312-239.4,312.3-239.7,312.6z"/>
</g>
</svg>
